<svg width="24" height="24" viewBox="0 0 24 24" fill="none" xmlns="http://www.w3.org/2000/svg">
<path d="M17.0009 3.76697C13.9839 1.74597 10.0179 1.74597 7.00089 3.76697M15.9809 19.32C19.2389 17.718 21.2219 14.283 20.9809 10.66M8.02089 19.32C4.76289 17.718 2.77989 14.283 3.02089 10.66M20.8556 5.68831C21.4414 6.2741 21.4414 7.22384 20.8556 7.80963C20.2698 8.39542 19.3201 8.39542 18.7343 7.80963C18.1485 7.22384 18.1485 6.2741 18.7343 5.68831C19.3201 5.10252 20.2698 5.10252 20.8556 5.68831ZM5.27355 5.68831C5.85934 6.2741 5.85934 7.22384 5.27355 7.80963C4.68776 8.39542 3.73802 8.39542 3.15223 7.80963C2.56644 7.22384 2.56644 6.2741 3.15223 5.68831C3.73802 5.10252 4.68776 5.10252 5.27355 5.68831ZM13.0646 19.1883C13.6504 19.7741 13.6504 20.7238 13.0646 21.3096C12.4788 21.8954 11.5291 21.8954 10.9433 21.3096C10.3575 20.7238 10.3575 19.7741 10.9433 19.1883C11.5291 18.6025 12.4788 18.6025 13.0646 19.1883ZM14.4759 8.77397C15.8429 10.141 15.8429 12.357 14.4759 13.724C13.1089 15.091 10.8929 15.091 9.52589 13.724C8.15889 12.357 8.15889 10.141 9.52589 8.77397C10.8929 7.40697 13.1089 7.40697 14.4759 8.77397Z" stroke="white" stroke-width="1.8" stroke-linecap="round" stroke-linejoin="round"/>
</svg>
