<svg width="24" height="24" viewBox="0 0 24 24" fill="none" xmlns="http://www.w3.org/2000/svg">
<path d="M14.1227 9.87999C15.2927 11.05 15.2927 12.95 14.1227 14.12C12.9427 15.29 11.0427 15.29 9.8727 14.12C8.6927 12.94 8.6927 11.04 9.8727 9.86999C11.0427 8.69699 12.9427 8.69699 14.1127 9.86999M3.0007 12C3.0007 11.34 3.1507 10.689 3.4407 10.08C4.9507 6.97999 8.3007 4.98999 11.9947 4.98999C15.6847 4.98999 19.0247 6.97999 20.5447 10.07C20.8347 10.67 20.9847 11.32 20.9847 11.98C20.9847 12.63 20.8247 13.291 20.5347 13.89C19.0147 16.98 15.6647 18.97 11.9747 18.97C8.2747 18.97 4.9347 16.97 3.4207 13.88C3.1207 13.27 2.9707 12.62 2.9707 11.96L3.0007 12Z" stroke="white" stroke-width="1.8" stroke-linecap="round" stroke-linejoin="round"/>
</svg>
